<svg width="203" height="203" viewBox="0 0 203 203" fill="none" xmlns="http://www.w3.org/2000/svg">
<path d="M107.086 73.6055H51.1667C37.2041 73.6055 24.9823 82.9836 21.3685 96.4704L1.24865 171.559C0.61866 173.91 2.39032 176.219 4.82444 176.219H114.251C127.097 176.219 138.341 167.591 141.665 155.183L152.667 114.125C104.202 104.654 76.7398 118.699 27.4952 157.538C53.5982 115.755 70.4678 96.4208 107.086 73.6055Z" fill="#B1D5FF"/>
<path d="M194.848 58.0512C189.05 55.7475 183.978 52.5872 179.628 48.574C175.281 44.5607 171.857 39.8764 169.361 34.525C168.407 32.4787 167.631 30.3649 167.043 28.2041C166.85 27.4975 166.164 27 165.375 27C164.586 27 163.899 27.4975 163.707 28.2041C163.118 30.3648 162.343 32.4786 161.389 34.525C158.893 39.8764 155.469 44.5607 151.122 48.574C146.774 52.5872 141.699 55.7475 135.902 58.0512C133.685 58.9324 131.395 59.648 129.054 60.191C128.289 60.3686 127.75 61.0024 127.75 61.7307C127.75 62.4591 128.289 63.0928 129.054 63.2705C131.395 63.8137 133.685 64.5293 135.902 65.4103C141.699 67.7138 146.772 70.8743 151.122 74.8875C155.471 78.9006 158.893 83.5849 161.389 88.9365C162.343 90.9827 163.119 93.0964 163.707 95.2572C163.899 95.964 164.586 96.4615 165.375 96.4615C166.164 96.4615 166.85 95.964 167.043 95.2572C167.632 93.0965 168.407 90.9828 169.361 88.9365C171.857 83.5849 175.281 78.9025 179.628 74.8875C183.976 70.8743 189.05 67.7138 194.848 65.4103C197.065 64.529 199.355 63.8134 201.696 63.2705C202.461 63.0928 203 62.4591 203 61.7307C203 61.0024 202.461 60.3686 201.696 60.191C199.355 59.6477 197.065 58.9321 194.848 58.0512Z" fill="#0000FF"/>
<path d="M121.963 63.1758H66.0436C52.0811 63.1758 39.8593 72.5539 36.2455 86.0407L16.1256 161.129C15.4956 163.48 17.2673 165.789 19.7014 165.789H129.128C141.973 165.789 153.218 157.161 156.542 144.753L167.544 103.695C138 92 91.6168 108.27 42.3721 147.108C68.4751 105.326 85.3448 85.9911 121.963 63.1758Z" fill="#0000FF"/>
</svg>
