<svg width="120" height="120" viewBox="0 0 120 120" fill="none" xmlns="http://www.w3.org/2000/svg">
<path d="M60 10C30 10 15 35 15 55C15 75 30 95 45 100V110H55V100C55 100 60 102 65 100V110H75V100C90 95 105 75 105 55C105 35 90 10 60 10Z" fill="url(#paint0_linear_11752_3521)"/>
<path d="M20 44.9999C5 39.9999 0 49.9999 5 59.9999C10 69.9999 20 64.9999 25 54.9999C28 47.9999 25 44.9999 20 44.9999Z" fill="url(#paint1_linear_11752_3521)"/>
<path d="M99.9997 44.9999C115 39.9999 120 49.9999 115 59.9999C110 69.9999 99.9997 64.9999 94.9997 54.9999C91.9997 47.9999 94.9997 44.9999 99.9997 44.9999Z" fill="url(#paint2_linear_11752_3521)"/>
<path d="M45 15.0009C38.3333 8.33423 33.3333 6.0009 30 8.0009" stroke="#FF4D4D" stroke-width="3" stroke-linecap="round"/>
<path d="M75 15.0009C81.6667 8.33423 86.6667 6.0009 90 8.0009" stroke="#FF4D4D" stroke-width="3" stroke-linecap="round"/>
<path d="M45 41C48.3137 41 51 38.3137 51 35C51 31.6863 48.3137 29 45 29C41.6863 29 39 31.6863 39 35C39 38.3137 41.6863 41 45 41Z" fill="#050810"/>
<path d="M75 41C78.3137 41 81 38.3137 81 35C81 31.6863 78.3137 29 75 29C71.6863 29 69 31.6863 69 35C69 38.3137 71.6863 41 75 41Z" fill="#050810"/>
<path d="M46 36.5C47.3807 36.5 48.5 35.3807 48.5 34C48.5 32.6193 47.3807 31.5 46 31.5C44.6193 31.5 43.5 32.6193 43.5 34C43.5 35.3807 44.6193 36.5 46 36.5Z" fill="#00E5CC"/>
<path d="M76 36.5C77.3807 36.5 78.5 35.3807 78.5 34C78.5 32.6193 77.3807 31.5 76 31.5C74.6193 31.5 73.5 32.6193 73.5 34C73.5 35.3807 74.6193 36.5 76 36.5Z" fill="#00E5CC"/>
<defs>
<linearGradient id="paint0_linear_11752_3521" x1="15" y1="10" x2="9959.75" y2="8960.28" gradientUnits="userSpaceOnUse">
<stop stop-color="#FF4D4D"/>
<stop offset="1" stop-color="#991B1B"/>
</linearGradient>
<linearGradient id="paint1_linear_11752_3521" x1="3.125" y1="43.6699" x2="2177.6" y2="2347.04" gradientUnits="userSpaceOnUse">
<stop stop-color="#FF4D4D"/>
<stop offset="1" stop-color="#991B1B"/>
</linearGradient>
<linearGradient id="paint2_linear_11752_3521" x1="93.8027" y1="43.6699" x2="2268.27" y2="2347.04" gradientUnits="userSpaceOnUse">
<stop stop-color="#FF4D4D"/>
<stop offset="1" stop-color="#991B1B"/>
</linearGradient>
</defs>
</svg>
